<svg viewBox="0 0 55 66" xmlns="http://www.w3.org/2000/svg">
  <path d="M45.0876 32.2362L29.1777 48.1461C28.2014 49.1225 26.6185 49.1225 25.6422 48.1461L9.73225 32.2362C8.75594 31.2599 8.75594 29.677 9.73225 28.7007C10.7086 27.7244 12.2915 27.7244 13.2678 28.7007L24.9099 40.3428L24.9099 0L29.9099 0V40.3428L41.5521 28.7007C42.5284 27.7244 44.1113 27.7244 45.0876 28.7007C46.0639 29.677 46.0639 31.2599 45.0876 32.2362Z"/>
  <path d="M0 47V55.7297C0 61.2526 4.47715 65.7297 10 65.7297H44.4054C49.9283 65.7297 54.4054 61.2526 54.4054 55.7297V47H49.4054V55.7297C49.4054 58.4911 47.1668 60.7297 44.4054 60.7297H10C7.23858 60.7297 5 58.4912 5 55.7297V47H0Z"/>
</svg>
