<svg xmlns="http://www.w3.org/2000/svg" fill="none" viewBox="0 0 52 52">
  <path fill="#000" d="M43.904 19.29c-.082-1.86-.383-3.138-.813-4.246a8.542 8.542 0 00-2.024-3.104 8.614 8.614 0 00-3.098-2.017c-1.114-.43-2.386-.732-4.245-.813-1.874-.09-2.469-.11-7.22-.11-4.753 0-5.347.02-7.214.103-1.86.082-3.138.383-4.246.813a8.54 8.54 0 00-3.104 2.024 8.618 8.618 0 00-2.017 3.097c-.43 1.115-.732 2.386-.813 4.246-.09 1.874-.11 2.468-.11 7.22s.02 5.347.103 7.214c.082 1.86.383 3.138.813 4.246a8.631 8.631 0 002.024 3.104 8.613 8.613 0 003.097 2.017c1.115.43 2.386.731 4.246.813 1.867.083 2.462.103 7.214.103 4.752 0 5.346-.02 7.213-.103 1.86-.082 3.138-.382 4.246-.813a8.952 8.952 0 005.121-5.121c.43-1.115.732-2.387.814-4.246.082-1.867.102-2.462.102-7.214 0-4.752-.007-5.346-.089-7.213zm-3.152 14.29c-.075 1.71-.362 2.632-.601 3.248a5.806 5.806 0 01-3.323 3.323c-.616.239-1.545.526-3.248.601-1.846.082-2.4.103-7.07.103s-5.23-.02-7.07-.103c-1.709-.075-2.632-.362-3.247-.601a5.385 5.385 0 01-2.01-1.306 5.441 5.441 0 01-1.306-2.01c-.24-.616-.527-1.546-.602-3.248-.082-1.846-.102-2.4-.102-7.07s.02-5.23.102-7.07c.075-1.709.362-2.632.602-3.247a5.32 5.32 0 011.313-2.01 5.434 5.434 0 012.01-1.306c.615-.24 1.545-.527 3.247-.602 1.847-.082 2.4-.103 7.07-.103 4.677 0 5.23.02 7.07.103 1.71.075 2.632.362 3.248.602.758.28 1.45.724 2.01 1.305a5.44 5.44 0 011.306 2.01c.239.616.526 1.546.601 3.248.082 1.847.103 2.4.103 7.07s-.02 5.217-.103 7.063z"/>
  <path fill="#000" d="M26.503 17.512c-4.963 0-8.99 4.027-8.99 8.991 0 4.964 4.026 8.991 8.99 8.991a8.993 8.993 0 008.991-8.99 8.993 8.993 0 00-8.99-8.992zm0 14.824a5.833 5.833 0 010-11.665 5.833 5.833 0 010 11.665zM37.95 17.157a2.1 2.1 0 11-4.2 0 2.1 2.1 0 014.2 0z"/>
  <circle stroke="#000" cx="26" cy="26" r="25" stroke-width="2"/>
</svg>
