<svg viewBox="0 0 13.76 13.76" xmlns="http://www.w3.org/2000/svg"><g transform="translate(-34.18 -159.2)"><g fill="#fff" stroke-width=".2646"><path d="m45.81 164c-.0217-.492-.1013-.8303-.2153-1.123-.1176-.3111-.2985-.5897-.5355-.8213-.2316-.2352-.512-.4179-.8195-.5336-.2948-.114-.6313-.1936-1.123-.2152-.4957-.0235-.6531-.029-1.91-.029-1.257 0-1.415.005-1.909.0271-.492.0217-.8303.1013-1.123.2152-.3112.1176-.5898.2985-.8213.5355-.2352.2316-.4178.512-.5337.8195-.114.2949-.1936.6313-.2152 1.123-.02353.4957-.02897.6531-.02897 1.91 0 1.257.0054 1.415.02714 1.909.02169.492.1013.8303.2153 1.123.1176.3112.3003.5897.5354.8213.2316.2352.512.4179.8195.5337.2949.114.6313.1936 1.123.2152.4938.0218.6512.0272 1.909.0272s1.415-.005 1.909-.0272c.492-.0217.8303-.1012 1.123-.2152.6224-.2406 1.114-.7327 1.355-1.355.1139-.2949.1935-.6314.2152-1.123.0217-.4939.02715-.6512.02715-1.909 0-1.257-.0019-1.415-.02352-1.909zm-.8339 3.781c-.01992.4522-.09588.6965-.1592.8593-.1556.4034-.4758.7236-.8792.8792-.1628.0633-.4088.1393-.8593.1592-.4884.0218-.6349.0271-1.87.0271-1.236 0-1.384-.005-1.871-.0271-.4523-.0199-.6965-.0958-.8593-.1592-.2008-.0742-.3835-.1918-.5318-.3455-.1538-.1502-.2714-.3311-.3455-.5318-.06332-.1628-.1393-.4089-.1591-.8593-.02175-.4884-.02712-.635-.02712-1.871 0-1.236.0054-1.384.02712-1.87.01987-.4522.09583-.6965.1591-.8593.07419-.2008.1918-.3835.3474-.5319.1501-.1538.331-.2714.5318-.3455.1628-.0633.4089-.1393.8593-.1592.4884-.0217.635-.0271 1.87-.0271 1.237 0 1.384.005 1.871.0271.4523.0199.6965.0959.8593.1592.2008.0741.3835.1917.5318.3455.1537.1502.2714.3311.3455.5319.06332.1628.1393.4088.1592.8593.0217.4884.02715.6349.02715 1.87 0 1.236-.0054 1.38-.02715 1.869z"/><path d="m41.21 163.6c-1.313 0-2.379 1.065-2.379 2.379 0 1.313 1.066 2.379 2.379 2.379 1.313 0 2.379-1.065 2.379-2.379 0-1.313-1.065-2.379-2.379-2.379zm0 3.922c-.852 0-1.543-.691-1.543-1.543s.6911-1.543 1.543-1.543c.8521 0 1.543.691 1.543 1.543s-.691 1.543-1.543 1.543z"/><path d="m44.24 163.5c0 .3067-.2487.5554-.5554.5554-.3067 0-.5554-.2487-.5554-.5554 0-.3068.2487-.5554.5554-.5554.3068 0 .5554.2486.5554.5554z"/></g><circle cx="41.06" cy="166.1" r="6.615" fill="none" stroke="#fff" stroke-width=".5292"/></g></svg>