<svg viewBox="0 0 1489 687" xmlns="http://www.w3.org/2000/svg">
  <path d="M6 269.5L0.5 271V326L30 320V319L44 316.5V318.5L95.5 309L114.5 310V250.5L94.5 249L90 250V251.5L58 258L45.5 256.5L24 262.5V265.5L7.5 270L6 269.5Z"/>
  <path d="M255 221V226.5H259L294 218V282.5L260 288.5L234 285.5L187.5 294L177 295L173 295.5V297L154 300L149.5 299.5L114.5 306.5V245L119 243L122 244L149.5 236.5V234.5L176.5 228L188 229.5L229 219.5L234 218L255 221Z"/>
  <path d="M301 216.5L294 218V276.5L301.5 275.5V273L308 272L310 273.5L350 265.5V265L355 264.5L358.5 266L383 261.5V258.5L388.5 257.5L401 258.5L458 247.5V246.5L465 245.5L491.5 250.5L539 242L541.5 242.5L540.5 166.5H538.5L492 177L488 176V172L486.5 171.5V170.5L464.5 166.5L457 168.5V169.5L400 182.5L387.5 181L350 190V193L309.5 203L306.5 201L301 203V216.5Z"/>
  <path d="M564.5 160.5L540.5 166.5L541.5 239.5L565 236V230.5L573 229H576L638.5 217V215.5L644.5 214.5L648 215.5L687 208L694.5 206.5L707.5 205.5L793 191.5L804 189.5L832 191.5L857.5 187.5L856.5 98.5L831 104L826.5 103.5V96.5L803.5 90.5L792.5 93L706.5 114.5L694.5 111L637 124.5V129L575.5 142.5L572 141.5L564.5 143.5V160.5Z"/>
  <path d="M1438.5 51.5L1489 74V162L1326.5 109L1229 124.5L1203 121L1187 122.5V124.5L1060 146L1048 144.5L1037 146V149.5L980 159L978 157.5L967 159V161L872 178L869 177L858 179L857 78.5L869.5 75.5L872 77L967 54.5V49.5L1048.5 30.5L1060.5 35L1187 5.5V4.5L1203 0.5L1224 10V19L1229 20L1308 0.5V5L1313 8L1328 5L1392 33.5H1400.5L1400 26.5L1438.5 44V51.5Z"/>
  <path d="M95.5 309L114.5 310V357.5L95.5 356L30 365L28 364L0.5 368.5V326L30 320V319L44 316V318.5L95.5 309Z"/>
  <path d="M234 285.5L260 288.5L294 282.5V336L260 340L234 338L187.5 344.5H176.5L173 345V346.5L154 349L152.5 348L122 353H120L114.5 354V306.5L149.5 299.5L154 300L173 297V295.5L177 295L187.5 294L234 285.5Z"/>
  <path d="M539 242L541.5 242.5V303L538.5 302L491.5 308L465 307L458 308V310L401 317L389 318L383 318.5V320L358 323L356 322L350.5 322.5L350 324L310 328.5H308L301.5 330H294V276.5L301.5 275.5V273L308 272L310 273.5L350 265.5V265L355 264.5L358.5 266L383 261.5V258.5L388.5 257.5L401 258.5L458 247.5V246.5L465 245.5L491.5 250.5L539 242Z"/>
  <path d="M565 236L541.5 239.5V302L565 299V294.5L573 293.5L576 294L639 286L645.5 285L648.5 286L687 280L695 279L709 278L804 265.5H831.5L858 263V187.5L832 191.5L804 189.5L793 191.5L706.5 205.5L694.5 206.5L687 208L648 215.5L644.5 214.5L638.5 215.5V217L576 229H573L565 230.5V236Z"/>
  <path d="M869 177L858 179V256.5L870 255L872.5 255.5L968.5 242.5L978.5 241.5L981 243.5L1037.5 235.5V232L1049 230.5L1062 232L1188.5 214.5V217L1204 214.5L1228.5 218L1328.5 205.5L1489 247V162L1326.5 109L1229 124.5L1203 121L1187 122.5V124.5L1060 146L1048 144.5L1037 146V149.5L980 159L978 157.5L967 159V161L872 178L869 177Z"/>
  <path d="M95.5 356L114.5 357.5L115 404.5L95 403L57.5 405.5L47.5 406.5H44V408L30 409L28 408L0.5 411V368.5L28 364L30 365L95.5 356Z"/>
  <path d="M120 353L114.5 354V400.5L119 400L122 400.5L149 399V398H153L155 399L173 397V394.5H177L188.5 393.5L234.5 390.5L260 393.5L294 390.5V336L260 340L234 338L187.5 344.5H176.5L173 345V346.5L154 349L152.5 348L122 353H120Z"/>
  <path d="M538.5 302L542 303V365.5L540 365L492.5 368L465.5 369.5H459V371.5L401 376L389 376.5L383.5 377V378.5L357.5 380.5L356 379L351 379.5V380.5L310.5 384H308L302 384.5L294 384V330H302L308 328.5H310L350.5 324V322.5L356 322L358 323L383 320V318.5L389 318L401 317L458 310V308L465 307L491 308L538.5 302Z"/>
  <path d="M565 299L541.5 302V365.5L565 363.5V360.5L573 360L576.5 361L639.5 356H644H648.5L687 352V349.5L695 348.5H709L794 340.5L804 339.5L832 340.5L858 338V263L831 265.5H803.5L793.5 266.5L709 278L695 279L686.5 280L649 286L645.5 285L638.5 286L576 294L573 293.5L565 294.5V299Z"/>
  <path d="M870 255.5L858 257V335.5L870 334L873 335.5L968.5 328V326.5L979 325.5L981.5 326.5L1038 321V318L1049 317L1062 319L1188.5 307.5V306L1204 304.5L1228.5 307.5L1328.5 299.5L1489 325.5V247.5L1328.5 206L1228.5 218.5L1204 215L1188.5 217.5V215L1062 232.5L1049 231L1037.5 232.5V236L981 244L978.5 242L968 243L872.5 256L870 255.5Z"/>
  <path d="M95 403L115 404.5V449.5H95L57.5 450.5L47.5 451.5H44V453.5H30.5L28 452.5L0.5 454V411L28 408L30 409L44 408V406.5H47.5L57.5 405.5L95 403Z"/>
  <path d="M234 390.5L260 393.5L294 390.5V442.5L260 445L235 442.5L189 444L177 446H173V447.5H155H152.5L115 448.5V400.5L119 400L122 400.5L149 399V398H153L155 399L173 397V394.5H177L188 393.5L234 390.5Z"/>
  <path d="M540.5 428.5L543 431L542 365.5L540.5 365L466 369.5H459V371.5L401 376L389 376.5L383.5 377V378.5L357.5 380.5L356 379L351 379.5V380.5L310 384H308L302 384.5L293.5 384V411V439H302.5H307.5H310.5L351 437.5H355.5L358.5 439L384 437.5V435.5H388.5H401L466 433L492 431L540.5 428.5Z"/>
  <path d="M565 363.5L541.5 365.5L543 431L565.5 429V427L574.5 426.5L576.5 427L640 424H646L649.5 425.5L687 424V420.5L695.5 420L708 420.5L794 417V416L805.5 415L832 417L858 416V338L831.5 340.5L804 339.5L709 348.5H695L687 349.5V352L648.5 356H639L576.5 361L573 360L565 360.5V363.5Z"/>
  <path d="M870 334L858 335.5L857.5 411.5L870 410.5L872.5 413L968.5 409V408H979L982 410.5L1038 408V403.5L1049 403L1062 404.5L1188.5 399.5V394.5L1204 394L1228.5 397.5L1328.5 390.5L1489 405V325.5L1328.5 299.5L1228.5 307.5L1204 304.5L1188.5 306V307.5L1062 319L1049 317L1038 318V321L981.5 326.5L979 325.5L968.5 326.5V328L873 335.5L870 334Z"/>
  <path d="M95 449.5H115L115.5 497L95 496H59L48 497H44V498.5H30.5L26 497H0.5V454L27.5 452.5L30.5 453.5H44V451.5H48L58 450.5L95 449.5Z"/>
  <path d="M235 442.5L260 445L294 442.5V497.5H260L235 495H189L176.5 496H173V497.5H156C155 497.167 152.9 496.5 152.5 496.5C152.1 496.5 132 496.167 122 496H120H115.5L115 448.5L155.5 447.5H173V446H177.5L189 444L235 442.5Z"/>
  <path d="M310.5 439H293.5V495H302H307.5H310.5H351V497H355.5H358H384V495H390L401 494H465L493.5 492.5L539.5 491.5L543 492.5V431L540.5 428.5L492 431L466.5 433L401 435.5H390H384V437.5L359 439L355.5 437.5H351L310.5 439Z"/>
  <path d="M832 417L858 416V492.5H832H804.5H793.5H708L696 494H687V496H650L646 492.5H639H573H565.5V490.5H543V431L565.5 429V427L574.5 426.5L576.5 427L639 424H646L650 425.5L687 424V420.5L696 420L708 420.5L794 417V416L805.5 415L832 417Z"/>
  <path d="M1328 390.5L1489 405.5V493L1328 486L1229.5 490L1205.5 488.5H1188.5L1061.5 490L1049 492.5H1038V494H981.5V490.5L979.5 489H968.5V490.5H872.5L869.5 489.5H858.5L857.5 411.5L870 410.5L872.5 413L968.5 409V408H979L982 410.5L1038 408V403.5L1049 403L1061.5 404.5L1188.5 399.5V394.5L1204 394L1228 397.5L1328 390.5Z"/>
  <path d="M95 496L115.5 497V541H96H58.5L48 540H45V542.5H31L28 539.5H0.5V497H26L30.5 498.5H44V497H48L58.5 496H95Z"/>
  <path d="M235 495L260 497.5H294V548.5H260L235 546H189H177.5H173V547H155L151.5 543.5H122L119.5 542.5H115.5V496H122L152.5 496.5L156 497.5H173V496H177.5L189 495H235Z"/>
  <path d="M539.5 491.5L543 492.5V554L540.5 553H492.5H465.5H459V554L400.5 553L389.5 554H384V555.5H358L356 554H351V550.5H311L308.5 551.5H301.5H294V495H351V497H384V495H390L401 494H459H465.5L492.5 492.5L539.5 491.5Z"/>
  <path d="M565.5 490.5H543V554.5H566V561H574L577.5 560L640 561V567H647L649.5 566H688V567H696L710 564.5L795 566V567H806L833 564.5H859V492.5H707.5L695.5 494H687V496H650L646 492.5H565.5V490.5Z"/>
  <path d="M869.5 489.5H858.5V570.5H869.5H872.5L968.299 573.5V578.5H979.5H981.5L1038.5 580.5L1038 578.5H1050L1061.5 577L1189 579.5H1205.5H1229.5L1328.5 582L1489 571V493L1328.5 486L1229.5 490L1205.5 488.5L1061.5 490L1049 492.5H1038V494H981.5V490.5L979.5 489H968.299V490.5H872.5L869.5 489.5Z"/>
  <path d="M11 586.5H0.5V539.5H28L31 542.5H45V540H48L58.5 541H96H115.5V592.5H96L57.5 589.5H48.5V561.5H11V586.5Z"/>
  <path d="M115.5 542.5L116 595L134 596.5V568.5H151.5H178.5V600.5H189L229 603L229.5 604.5L235 605L260 604L294 605V548.5H260L235 546H189H173V547H155L151.5 543.5H122L119.5 542.5H115.5Z"/>
  <path d="M540.5 553L543 554L542.5 625.5H540L492.5 622L466 623H458V622L403 617.5H390.5V571L357.5 570H333.5L334.5 612L302.5 611V605H294V551.5H308.5L311 550.5H351V554H356L358 555.5H384V554H389.5L400.5 553L459 554V553H466H492.5H540.5Z"/>
  <path d="M859.5 649.5V564.5H833L806 567H795V566L710 564.5L696 567H688V566H649L647 567H640V561L577 560L574 561H566V554.5H543L542.5 626H566V631.5L573.5 632L579 631.5L621.5 635.5V584.5L639 583H648.5V584.5L697.5 585.5V643L709 642L794.5 649.5L805.5 651L832.5 648L859.5 649.5Z"/>
  <path d="M1329.5 686.5L1489 658.5V571L1329 582L1230 579.5H1205H1189L1061.5 577L1050 578.5H1038L1038.5 580.5L968.5 578.5V573.5L873 570.5H859.5V655H871H875.5L952 661.5L951 600.5L968.5 599H982V600.5L1051.5 602.5L1050.5 671.5L1062.5 670L1189 680V681.5L1206 682.5L1230 678.5L1329.5 686.5Z"/>
</svg>
