<svg xmlns="http://www.w3.org/2000/svg" viewBox="0 0 341 89">
  <path d="M.5 14.5V16h1v72.118H60V11h3.5L65 9V0l-1.5.5v5h-22v-1l-8-4H31V5H13.5L12 2.5h-2L6.5 6v1.5l-5 5h-1v1H0v1h.5z"/>
  <path d="M71 3.5L65 0v9l-1.5 2H60v77h14v.5h17l1-.5h9.5l.5.5 31-.104V10.5h1l1-3v-7l-1.5-.5-1 .5v5h-36v-1L92 .5 91 0l-1.5.5v5h-19V5h.5V3.5z"/>
  <path d="M136 0l-1 .5v7l-1 3h-1v78h31.5V88h11l.5.5h31.5v-78h-1l-.5-3v-7l-1-.5-1.5.5-1.5 3V5h.5v.5H165v-5l-1.5-.5-1.5.5V2h.5v3.5H139v-2l-2-3-1-.5z"/>
  <path d="M207 0l-1 .5v7l.5 3h1v78H239V88h10.5l1 .38H281V12.5l.5-.5v-1.5L276 9V.5l-.5-.5-1.5.5-4.5 3v1h.5V5h-32V2l.5-.5v-1L237 0l-1.5.5-3.751 4V5H208V1.5h.5v-1L207 0z"/>
  <path d="M281 12.5v76h47.5V88H339l.5-72 .5-.5V14h.5v-.5h-.5V13h-.5v-.5l-5.5-5v-1l.5-.5-4-3.5h-2L327 5h-18V1.5h.5v-1l-2-.5-1 .5-8 4V5H277V.5l-1.5-.5.5.5V9l5.5 1.5V12l-.5.5z"/>
</svg>
